<mxfile host="app.diagrams.net" agent="Mozilla/5.0 (Windows NT 10.0; Win64; x64) AppleWebKit/537.36 (KHTML, like Gecko) Chrome/135.0.0.0 Safari/537.36" version="26.2.12">
  <diagram name="Página-1" id="XXjMigavx-W10F49XDjn">
    <mxGraphModel dx="1851" dy="556" grid="1" gridSize="10" guides="1" tooltips="1" connect="1" arrows="1" fold="1" page="1" pageScale="1" pageWidth="827" pageHeight="1169" math="0" shadow="0">
      <root>
        <mxCell id="0" />
        <mxCell id="1" parent="0" />
        <mxCell id="xmNOLHHIbgw2WWlU3eTN-6" value="&lt;font style=&quot;vertical-align: inherit;&quot;&gt;&lt;font style=&quot;vertical-align: inherit;&quot;&gt;Usuários&lt;/font&gt;&lt;/font&gt;" style="rounded=0;whiteSpace=wrap;html=1;fillColor=#FFCCCC;strokeColor=#660000;fontFamily=Times New Roman;fontStyle=1" parent="1" vertex="1">
          <mxGeometry x="-60" y="160" width="120" height="35" as="geometry" />
        </mxCell>
        <mxCell id="xmNOLHHIbgw2WWlU3eTN-9" value="Tipo" style="ellipse;whiteSpace=wrap;html=1;fillColor=#CCCCFF;strokeColor=#000066;fontFamily=Times New Roman;fontStyle=0" parent="1" vertex="1">
          <mxGeometry x="-45" y="78" width="90" height="40" as="geometry" />
        </mxCell>
        <mxCell id="xmNOLHHIbgw2WWlU3eTN-14" value="" style="endArrow=none;html=1;rounded=0;exitX=0.5;exitY=0;exitDx=0;exitDy=0;entryX=0.5;entryY=1;entryDx=0;entryDy=0;fillColor=#CCCCFF;strokeColor=#000066;fontFamily=Times New Roman;fontStyle=0" parent="1" source="xmNOLHHIbgw2WWlU3eTN-6" target="xmNOLHHIbgw2WWlU3eTN-9" edge="1">
          <mxGeometry width="50" height="50" relative="1" as="geometry">
            <mxPoint x="250" y="150" as="sourcePoint" />
            <mxPoint x="300" y="100" as="targetPoint" />
          </mxGeometry>
        </mxCell>
        <mxCell id="xmNOLHHIbgw2WWlU3eTN-39" value="&lt;font style=&quot;vertical-align: inherit;&quot;&gt;&lt;font style=&quot;vertical-align: inherit;&quot;&gt;Feed&lt;/font&gt;&lt;/font&gt;" style="rounded=0;whiteSpace=wrap;html=1;fillColor=#FFCCCC;strokeColor=#660000;fontFamily=Times New Roman;fontStyle=1" parent="1" vertex="1">
          <mxGeometry x="250" y="160" width="120" height="35" as="geometry" />
        </mxCell>
        <mxCell id="xmNOLHHIbgw2WWlU3eTN-41" value="Tipo" style="ellipse;whiteSpace=wrap;html=1;fillColor=#CCCCFF;strokeColor=#000066;fontFamily=Times New Roman;fontStyle=0" parent="1" vertex="1">
          <mxGeometry x="265" y="78" width="90" height="40" as="geometry" />
        </mxCell>
        <mxCell id="xmNOLHHIbgw2WWlU3eTN-45" value="" style="endArrow=none;html=1;rounded=0;entryX=0.5;entryY=1;entryDx=0;entryDy=0;exitX=0.5;exitY=0;exitDx=0;exitDy=0;fillColor=#CCCCFF;strokeColor=#000066;fontFamily=Times New Roman;fontStyle=0" parent="1" source="xmNOLHHIbgw2WWlU3eTN-39" target="xmNOLHHIbgw2WWlU3eTN-41" edge="1">
          <mxGeometry width="50" height="50" relative="1" as="geometry">
            <mxPoint x="25" y="340" as="sourcePoint" />
            <mxPoint x="130" y="250" as="targetPoint" />
          </mxGeometry>
        </mxCell>
        <mxCell id="n9gVkUT_TrZV7uCSKe-V-20" value="Calendario" style="rounded=0;whiteSpace=wrap;html=1;fillColor=#FFCCCC;strokeColor=#660000;fontFamily=Times New Roman;fontStyle=1" vertex="1" parent="1">
          <mxGeometry x="545" y="160" width="120" height="35" as="geometry" />
        </mxCell>
        <mxCell id="n9gVkUT_TrZV7uCSKe-V-22" value="Eventos" style="ellipse;whiteSpace=wrap;html=1;fillColor=#CCCCFF;strokeColor=#000066;fontFamily=Times New Roman;fontStyle=0" vertex="1" parent="1">
          <mxGeometry x="560" y="78" width="90" height="40" as="geometry" />
        </mxCell>
        <mxCell id="n9gVkUT_TrZV7uCSKe-V-23" value="" style="endArrow=none;html=1;rounded=0;entryX=0.5;entryY=1;entryDx=0;entryDy=0;exitX=0.5;exitY=0;exitDx=0;exitDy=0;fillColor=#CCCCFF;strokeColor=#000066;fontFamily=Times New Roman;fontStyle=0" edge="1" parent="1" source="n9gVkUT_TrZV7uCSKe-V-20" target="n9gVkUT_TrZV7uCSKe-V-22">
          <mxGeometry width="50" height="50" relative="1" as="geometry">
            <mxPoint x="584.41" y="160" as="sourcePoint" />
            <mxPoint x="584.41" y="118" as="targetPoint" />
          </mxGeometry>
        </mxCell>
        <mxCell id="n9gVkUT_TrZV7uCSKe-V-25" value="" style="rhombus;whiteSpace=wrap;html=1;" vertex="1" parent="1">
          <mxGeometry x="130" y="162.5" width="35" height="30" as="geometry" />
        </mxCell>
        <mxCell id="n9gVkUT_TrZV7uCSKe-V-28" value="" style="rhombus;whiteSpace=wrap;html=1;" vertex="1" parent="1">
          <mxGeometry x="440" y="162.5" width="35" height="30" as="geometry" />
        </mxCell>
        <mxCell id="n9gVkUT_TrZV7uCSKe-V-31" value="Chat" style="rounded=0;whiteSpace=wrap;html=1;fillColor=#FFCCCC;strokeColor=#660000;fontFamily=Times New Roman;fontStyle=1" vertex="1" parent="1">
          <mxGeometry x="-60" y="390" width="120" height="35" as="geometry" />
        </mxCell>
        <mxCell id="n9gVkUT_TrZV7uCSKe-V-34" value="" style="endArrow=none;html=1;rounded=0;exitX=0.25;exitY=0;exitDx=0;exitDy=0;entryX=0;entryY=1;entryDx=0;entryDy=0;" edge="1" parent="1" source="n9gVkUT_TrZV7uCSKe-V-31" target="n9gVkUT_TrZV7uCSKe-V-36">
          <mxGeometry width="50" height="50" relative="1" as="geometry">
            <mxPoint x="320" y="340" as="sourcePoint" />
            <mxPoint x="-30" y="320" as="targetPoint" />
          </mxGeometry>
        </mxCell>
        <mxCell id="n9gVkUT_TrZV7uCSKe-V-35" value="" style="endArrow=none;html=1;rounded=0;exitX=0.75;exitY=0;exitDx=0;exitDy=0;entryX=1;entryY=1;entryDx=0;entryDy=0;" edge="1" parent="1" source="n9gVkUT_TrZV7uCSKe-V-31" target="n9gVkUT_TrZV7uCSKe-V-36">
          <mxGeometry width="50" height="50" relative="1" as="geometry">
            <mxPoint x="30" y="310" as="sourcePoint" />
            <mxPoint x="30" y="320" as="targetPoint" />
          </mxGeometry>
        </mxCell>
        <mxCell id="n9gVkUT_TrZV7uCSKe-V-36" value="" style="rhombus;whiteSpace=wrap;html=1;" vertex="1" parent="1">
          <mxGeometry x="-60" y="260" width="120" height="60" as="geometry" />
        </mxCell>
        <mxCell id="n9gVkUT_TrZV7uCSKe-V-37" value="" style="endArrow=none;html=1;rounded=0;exitX=1;exitY=0;exitDx=0;exitDy=0;entryX=0.75;entryY=1;entryDx=0;entryDy=0;" edge="1" parent="1" source="n9gVkUT_TrZV7uCSKe-V-36" target="xmNOLHHIbgw2WWlU3eTN-6">
          <mxGeometry width="50" height="50" relative="1" as="geometry">
            <mxPoint x="320" y="340" as="sourcePoint" />
            <mxPoint x="370" y="290" as="targetPoint" />
          </mxGeometry>
        </mxCell>
        <mxCell id="n9gVkUT_TrZV7uCSKe-V-38" value="" style="endArrow=none;html=1;rounded=0;exitX=0;exitY=0;exitDx=0;exitDy=0;entryX=0.25;entryY=1;entryDx=0;entryDy=0;" edge="1" parent="1" source="n9gVkUT_TrZV7uCSKe-V-36" target="xmNOLHHIbgw2WWlU3eTN-6">
          <mxGeometry width="50" height="50" relative="1" as="geometry">
            <mxPoint x="320" y="340" as="sourcePoint" />
            <mxPoint x="370" y="290" as="targetPoint" />
          </mxGeometry>
        </mxCell>
        <mxCell id="n9gVkUT_TrZV7uCSKe-V-39" value="" style="endArrow=none;html=1;rounded=0;exitX=1;exitY=0.5;exitDx=0;exitDy=0;" edge="1" parent="1" source="xmNOLHHIbgw2WWlU3eTN-6" target="n9gVkUT_TrZV7uCSKe-V-25">
          <mxGeometry width="50" height="50" relative="1" as="geometry">
            <mxPoint x="320" y="340" as="sourcePoint" />
            <mxPoint x="370" y="290" as="targetPoint" />
          </mxGeometry>
        </mxCell>
        <mxCell id="n9gVkUT_TrZV7uCSKe-V-40" value="" style="endArrow=none;html=1;rounded=0;exitX=1;exitY=0.5;exitDx=0;exitDy=0;" edge="1" parent="1" source="n9gVkUT_TrZV7uCSKe-V-25" target="xmNOLHHIbgw2WWlU3eTN-39">
          <mxGeometry width="50" height="50" relative="1" as="geometry">
            <mxPoint x="320" y="340" as="sourcePoint" />
            <mxPoint x="370" y="290" as="targetPoint" />
          </mxGeometry>
        </mxCell>
        <mxCell id="n9gVkUT_TrZV7uCSKe-V-41" value="" style="endArrow=none;html=1;rounded=0;exitX=1;exitY=0.5;exitDx=0;exitDy=0;" edge="1" parent="1" source="xmNOLHHIbgw2WWlU3eTN-39" target="n9gVkUT_TrZV7uCSKe-V-28">
          <mxGeometry width="50" height="50" relative="1" as="geometry">
            <mxPoint x="320" y="340" as="sourcePoint" />
            <mxPoint x="370" y="290" as="targetPoint" />
          </mxGeometry>
        </mxCell>
        <mxCell id="n9gVkUT_TrZV7uCSKe-V-42" value="" style="endArrow=none;html=1;rounded=0;exitX=1;exitY=0.5;exitDx=0;exitDy=0;entryX=0;entryY=0.5;entryDx=0;entryDy=0;" edge="1" parent="1" source="n9gVkUT_TrZV7uCSKe-V-28" target="n9gVkUT_TrZV7uCSKe-V-20">
          <mxGeometry width="50" height="50" relative="1" as="geometry">
            <mxPoint x="320" y="340" as="sourcePoint" />
            <mxPoint x="370" y="290" as="targetPoint" />
          </mxGeometry>
        </mxCell>
      </root>
    </mxGraphModel>
  </diagram>
</mxfile>
